<svg version="1.1" id="Layer_1" xmlns="http://www.w3.org/2000/svg" xmlns:xlink="http://www.w3.org/1999/xlink" x="0px" y="0px"
	 width="100%" viewBox="0 0 688 688" enable-background="new 0 0 688 688" xml:space="preserve">
<path fill="#000000" opacity="1.000000" stroke="none" 
	d="
M689.000000,384.531342 
	C686.044373,402.710815 682.708069,420.326385 677.483826,437.552704 
	C666.501282,473.766602 649.932129,507.174347 627.397461,537.566895 
	C579.765808,601.807617 517.177917,643.979126 439.680481,663.664124 
	C406.225616,672.161926 372.180603,674.920044 337.650757,672.473755 
	C265.142853,667.336853 201.045654,641.345703 145.868393,594.332336 
	C89.567314,546.361511 53.043503,485.935577 36.784557,413.640381 
	C29.104843,379.492676 26.961601,344.958923 30.466711,309.993103 
	C36.738010,247.432541 58.583786,191.019958 96.827118,141.252319 
	C145.193283,78.311409 208.315887,37.635536 285.555115,19.198021 
	C314.348206,12.324921 343.677155,9.403741 373.249786,10.886214 
	C454.111389,14.939796 524.859436,43.839184 584.604797,98.681862 
	C631.165222,141.421585 662.612549,193.574463 679.737732,254.387650 
	C683.795959,268.798676 686.350281,283.519806 688.881042,298.634949 
	C689.000000,327.354218 689.000000,355.708466 689.000000,384.531342 
M465.539124,620.949036 
	C530.416748,595.742126 581.122498,553.470642 616.629150,493.649323 
	C653.527039,431.484009 665.966675,364.255035 654.377319,292.949097 
	C645.689697,239.496918 624.153320,191.315109 588.467224,150.573944 
	C513.624939,65.129982 419.169128,30.591215 307.117279,48.855694 
	C239.267746,59.915184 182.424072,93.189957 136.876038,144.897644 
	C93.465973,194.178268 68.940964,251.635437 63.098038,317.175537 
	C60.594028,345.262939 62.080704,373.069794 67.740570,400.530762 
	C81.404930,466.828583 113.724586,522.570984 164.832520,567.027039 
	C214.843231,610.528625 273.218964,634.743042 339.288971,639.494812 
	C382.334351,642.590637 424.323090,636.576294 465.539124,620.949036 
z"/>
<path fill="#000000" opacity="1.000000" stroke="none" 
	d="
M195.822876,244.261322 
	C213.560165,274.979065 231.110153,305.381378 248.942856,336.273407 
	C253.614044,330.460663 256.621521,324.368835 259.997131,318.545654 
	C278.034790,287.429352 295.997986,256.269592 313.861694,225.053177 
	C316.065460,221.202255 318.548004,219.277817 323.282318,219.545944 
	C331.087616,219.987991 338.950531,219.953537 346.761475,219.564270 
	C351.887512,219.308807 353.283661,221.121521 353.259399,226.113007 
	C353.054657,268.260468 353.066010,310.409058 353.060211,352.557312 
	C353.055420,387.375763 353.120392,422.194183 353.143036,457.012634 
	C353.147797,464.336670 353.124847,464.339783 345.659760,464.346344 
	C339.495453,464.351746 333.322693,464.152557 327.169708,464.417114 
	C322.936340,464.599152 321.436981,462.844116 321.739746,458.839600 
	C321.902557,456.686340 321.759613,454.510132 321.759430,452.344299 
	C321.754761,395.368652 321.750732,338.393036 321.746613,281.417389 
	C321.746490,279.608612 321.746613,277.799835 321.746613,275.991028 
	C321.380463,275.837555 321.014313,275.684082 320.648163,275.530609 
	C297.250305,316.232727 273.852448,356.934814 249.583496,399.152252 
	C214.816895,338.851776 180.831146,279.905609 146.153549,219.759506 
	C158.475983,219.759506 169.079971,219.732498 179.683609,219.779816 
	C182.126907,219.790726 182.887177,221.959808 183.868179,223.626221 
	C187.838821,230.371094 191.720871,237.168106 195.822876,244.261322 
z"/>
<path fill="#000000" opacity="1.000000" stroke="none" 
	d="
M442.333252,392.000061 
	C442.333435,414.497589 442.223206,436.496063 442.422943,458.491730 
	C442.464325,463.046082 441.145081,464.642426 436.495148,464.447113 
	C428.390991,464.106689 420.262238,464.352356 411.759399,464.352356 
	C411.527985,459.134064 411.133667,454.517578 411.148468,449.902405 
	C411.271881,411.413086 411.467957,372.923981 411.649109,334.434814 
	C411.680176,327.832703 411.804230,327.689758 418.363007,327.688293 
	C457.691864,327.679596 497.020691,327.689880 536.349548,327.688171 
	C543.584778,327.687866 543.601807,327.675903 543.602295,320.609344 
	C543.604492,288.946320 543.593323,257.283295 543.599304,225.620270 
	C543.599609,223.812531 543.251892,221.941711 544.655823,219.731003 
	C553.288757,219.731003 562.258057,219.728043 571.227356,219.733246 
	C573.273560,219.734436 574.274414,220.782288 574.278687,222.824997 
	C574.282593,224.657867 574.333252,226.490692 574.333252,228.323532 
	C574.334595,304.648132 574.333374,380.972748 574.329346,457.297363 
	C574.328979,464.354218 574.319702,464.351868 567.230286,464.349274 
	C559.576965,464.346497 551.923645,464.348694 544.097351,464.348694 
	C543.827454,463.365143 543.433716,462.600616 543.434448,461.836487 
	C543.463806,431.008423 543.530518,400.180359 543.584656,369.352325 
	C543.587891,367.520325 543.542664,365.687683 543.490417,363.856201 
	C543.391846,360.403320 541.760071,358.879974 538.152161,358.890930 
	C507.822662,358.983093 477.492798,358.988220 447.163177,358.940186 
	C443.535736,358.934418 442.188141,360.320221 442.267456,364.005920 
	C442.464630,373.166870 442.332611,382.334869 442.333252,392.000061 
z"/>
<path fill="#000000" opacity="1.000000" stroke="none" 
	d="
M145.783844,323.000000 
	C145.783249,308.055176 145.783249,293.610321 145.783249,279.310547 
	C148.153671,278.557129 148.584747,280.145782 149.154205,281.204834 
	C157.427094,296.589844 167.389984,311.006561 175.167877,326.679932 
	C176.380249,329.122955 177.264709,331.442993 177.260818,334.222473 
	C177.202850,375.507080 177.128128,416.792145 177.308121,458.076019 
	C177.330704,463.254181 175.621857,464.732635 170.672440,464.434723 
	C164.203278,464.045410 157.685486,464.135834 151.203903,464.397980 
	C146.979034,464.568848 145.715500,462.850159 145.747604,458.840118 
	C145.880951,442.194153 145.800064,425.546478 145.797577,408.899414 
	C145.793304,380.432953 145.788849,351.966461 145.783844,323.000000 
z"/>
<path fill="#000000" opacity="1.000000" stroke="none" 
	d="
M430.983612,298.396393 
	C425.490906,298.400238 420.487274,298.229858 415.503052,298.466766 
	C412.182373,298.624603 411.055664,297.295654 411.077393,294.145569 
	C411.186462,278.328522 411.182312,262.510742 411.263245,246.693481 
	C411.301575,239.204102 411.584900,231.713043 411.470978,224.227097 
	C411.418121,220.755203 412.641785,219.534393 416.094025,219.623169 
	C423.249298,219.807175 430.417114,219.826447 437.570831,219.612854 
	C441.356903,219.499802 442.396545,221.038116 442.378998,224.617447 
	C442.267853,247.262619 442.212158,269.909637 442.419891,292.553467 
	C442.462097,297.151611 441.044128,298.996765 436.472107,298.419464 
	C434.833496,298.212555 433.146088,298.392181 430.983612,298.396393 
z"/>
</svg>