<?xml version="1.0" standalone="no"?>
<!DOCTYPE svg PUBLIC "-//W3C//DTD SVG 20010904//EN"
 "http://www.w3.org/TR/2001/REC-SVG-20010904/DTD/svg10.dtd">
<svg version="1.0" xmlns="http://www.w3.org/2000/svg"
 width="102.000000pt" height="107.000000pt" viewBox="0 0 102.000000 107.000000"
 preserveAspectRatio="xMidYMid meet">

<g transform="translate(0.000000,107.000000) scale(0.100000,-0.100000)"
fill="#000000" stroke="none">
<path d="M408 949 c-66 -15 -155 -67 -206 -119 -194 -197 -171 -513 50 -675
79 -59 161 -85 264 -85 181 0 326 93 406 259 43 89 51 215 20 318 -57 186
-232 315 -424 312 -40 -1 -90 -5 -110 -10z m-112 -334 c26 -47 50 -85 53 -85
3 0 28 39 55 86 44 76 52 85 75 82 l26 -3 3 -182 2 -183 -24 0 -25 0 -3 141
-3 142 -48 -87 c-27 -47 -52 -86 -57 -86 -7 0 -150 241 -150 254 0 3 11 6 24
6 20 0 33 -15 72 -85z m344 25 c0 -57 -1 -60 -25 -60 -24 0 -25 3 -25 53 0 58
4 67 32 67 15 0 18 -8 18 -60z m198 -128 l2 -182 -25 0 c-25 0 -25 1 -25 80
l0 80 -75 0 -75 0 0 -80 c0 -79 0 -80 -25 -80 l-26 0 3 103 3 102 98 3 97 3 0
73 c0 76 4 89 30 84 13 -3 15 -30 18 -186z m-615 53 c12 -26 17 -63 17 -136 0
-98 0 -100 -22 -97 -22 3 -23 7 -26 136 -1 72 1 132 6 132 4 0 16 -16 25 -35z"/>
<path d="M799 103 c-13 -16 -12 -17 4 -4 16 13 21 21 13 21 -2 0 -10 -8 -17
-17z"/>
</g>
</svg>
